<svg id="e58da2f7-103e-4273-805a-1a013e4a456e" data-name="Layer 1" xmlns="http://www.w3.org/2000/svg" viewBox="0 0 383.897 343.331"><path d="M1105.671,603.738c7.244-6.806,17.353-4.658,19.968,5.062,2,7.445,2.256,15.417,2.785,23.188.543,7.98.329,15.936,5.129,23.075.856,1.273-.453,4.748-1.7,6.569a82.763,82.763,0,0,1-38.967,30.81c-13.018,5.13-25.831,10.891-39.123,15.166a58.471,58.471,0,0,1-23.019,2.807c-10.622-1.054-17.087-8.981-21.035-18.474-1.432-3.444-1.311-7.5-2.322-11.162-.606-2.2-1.528-4.77-3.171-6.137-8.819-7.34-18.011-14.231-26.848-21.55-3-2.489-4.5-2.675-7.659.308-8.915,8.432-18.458,16.2-27.8,24.178-2.852,2.434-5.789,2.305-9.222.653-17.255-8.306-34.659-16.306-51.914-24.614-3.747-1.8-5.422-1.774-6.452,2.866-.7,3.166-3.114,5.952-4.762,8.909l-1.772-.133c-.376-1.857-.872-3.7-1.1-5.573-.641-5.187-1.3-10.42-6-13.711-2.287-1.6-5.206-3.692-5.878,1.678-.109.876-1.3,1.617-1.992,2.42-.705-.986-1.863-1.9-2.032-2.972-.6-3.773-.774-7.61-1.26-11.4-.952-7.441-5.118-12.308-12.419-13.855a35.839,35.839,0,0,0-12.336-.782c-6.895,1.01-10.553,4.463-10.363,10.605a79.825,79.825,0,0,1-.779,12.917c-.9,6.811-2.171,13.573-3.393,21.022.949.246,2.885,1.321,4.652,1.091,4.357-.566,7.254,1.716,10.226,4.18,23.6,19.558,50.02,33.524,80.179,39.809,6,1.25,12.219,1.437,18.331,2.162,3.471.411,5.37-1.205,5.99-4.5.738-3.916,1.616-7.823,2.045-11.776.359-3.3-.113-6.692.312-9.974.24-1.857,1.547-3.575,2.373-5.356.753,1.795,2.119,3.574,2.163,5.386.315,13.115-1.447,25.725-11.192,35.634-1.708,1.737-4.422,3.363-6.747,3.475-19.572.943-38.5-1.982-56.477-10.189a132.091,132.091,0,0,1-42.105-29.881,12.344,12.344,0,0,0-7.2-3.164c-5.693-.632-10.933-1.864-14.291-6.89-.688-1.03-.178-2.86-.22-4.321,1.225.567,2.8.827,3.615,1.753,3.82,4.316,7.868,7.01,13.971,4.361,1.04-.452,3.473.747,4.425,1.884a118.52,118.52,0,0,0,51.9,36.093c13.25,4.731,26.911,7.737,41.1,7.1,3.954-.179,8.554.393,11.078-5.2a41.864,41.864,0,0,0-5.66-1.3c-25.773-2.193-49.3-11.084-71.153-24.463-9.348-5.723-17.949-12.655-27.024-18.839a26.783,26.783,0,0,0-7.134-2.964c-3.088-.963-6.274-1.611-9.616-2.445a10.214,10.214,0,0,1,.628-2.592c4.958-7.332,5.656-15.45,4.708-23.962-1.48-13.295,4.087-21.622,15.663-23.695,13.731-2.458,24.885,3.866,27.9,16.314,1.079,4.456,2.948,6.557,7.447,8.391,4.271,1.742,7.3,6.521,10.892,9.974,1.011-3.577,1.741-8.219,3.615-12.341,3.625-7.976,7.858-15.679,11.937-23.444a7.339,7.339,0,0,1,2.668-2.91c.935-.527,2.3-.3,3.472-.4a10.108,10.108,0,0,1-.745,3.066c-3.162,5.054-6.445,10.033-9.7,15.03-2.589,3.977-1.656,6.345,2.817,8.313,14.02,6.17,27.914,12.631,41.784,19.133,5.876,2.755,11.653,5.749,17.312,8.925,2.685,1.507,4.82,1.913,7.107-.48,6.305-6.6,12.914-12.932,18.893-19.813,2.512-2.891,3.96-1.416,5.72.024,8.116,6.643,16.211,13.315,24.2,20.106,2.693,2.287,4.594,2.818,8.123.64,12.726-7.855,25.781-15.19,38.872-22.432,4.317-2.388,9.119-3.9,14.4-6.1a41.845,41.845,0,0,1-3.349-4.858c-3.852-7.744-7.634-15.525-11.264-23.375-.406-.878.317-2.278.516-3.436,1.043.585,2.6.913,3.047,1.8,2.851,5.643,5.069,11.639,8.266,17.064a71.536,71.536,0,0,0,9.77,12.433c.956,1.013,3.765.78,5.573.4,6.315-1.327,7.963-5.862,8.786-11.839,1.82-13.208,9.881-21.043,22.939-23.565-1.116,1.255-2,3.143-3.385,3.661-8.871,3.3-13.533,10.1-15.445,18.814-1.094,4.986-.85,10.253-1.48,15.361-.2,1.641-1.272,3.175-1.946,4.758l-1.468-.576c-.454-1.825-.907-3.65-1.454-5.852-5.031,1.608-7.771,5-10.263,8.8-.806,1.232-2.866,3.134-3.292,2.889-3.236-1.866-4.833.644-6.957,2.034-4.735,3.1-9.4,6.343-14.37,9.032-10.588,5.733-21.69,10.1-34.017,10.756-.707,8.76.288,16.7,5.64,23.492.8,1.01,3.555,1.924,4.17,1.408,9.392-7.879,20.9-9.656,32.311-10.386,17.453-1.116,32.739-6.23,45.616-18.525,7.305-6.975,14.929-13.86,25.057-16.9a3.738,3.738,0,0,0,1.923-2.993c-1.011-11.757-1.66-23.589-3.56-35.212-1.695-10.362-4.42-11.664-15.183-10.411A12.944,12.944,0,0,1,1105.671,603.738Zm-67.5,105.826c5.793-1.758,11.775-3.216,17.487-5.384,11.518-4.372,23.018-8.842,34.275-13.836,6.952-3.084,14.106-6.383,19.967-11.085,6.792-5.449,12.328-12.484,18.241-18.985.812-.894.65-2.673.939-4.042-1.386-.2-2.914-.861-4.129-.492-2.835.861-5.958,1.677-8.183,3.477-6.323,5.115-12.347,10.614-18.317,16.147-7.245,6.714-15.192,11.623-25.309,12.95-10.883,1.428-21.722,3.36-32.463,5.624-4.64.978-9.1,3.1-13.427,5.164-2.767,1.321-3.583,4.036-.5,5.783C1030.144,706.809,1034.007,707.906,1038.169,709.564Zm-94.48-38.292c-2.633-1.54-4.676-2.962-6.9-4-17.944-8.38-35.9-16.738-53.938-24.913-1.266-.573-4.086-.186-4.682.73-1.389,2.139-1.575,4.433,1.757,5.966q26.986,12.411,53.779,25.246C937.805,676.265,940.579,675.286,943.689,671.272Zm68.608-1.485c21.521-1.973,37.776-13.329,53.3-26.26-7.589-.82-14.15,1.726-20.251,5.474C1034.491,655.673,1023.763,662.56,1012.3,669.787Z" transform="translate(-785.241 -382.579)" style="fill:#fff"/><path d="M1110.739,497.5c3.512,6.788-1.112,11.559-6.271,15.826-5.766,4.77-11.832,9.181-17.845,13.644-.773.574-2.011.522-3.754-.215a28.007,28.007,0,0,1,3.274-3.751q7.954-6.447,16.1-12.66c4.154-3.154,5.408-6.912,3.306-11.807-6.111-14.232-14.821-26.752-24.945-38.375-2.841-3.262-5.144-7.074-8.321-9.938a21.315,21.315,0,0,0-8.607-4.357c-2.358-.629-5.323-.155-4.166,3.96a2.649,2.649,0,0,1-.906,2.394c-.694.252-1.768-.368-2.605-.766-.409-.195-.667-.726-.966-1.125-10.764-14.366-25.191-16.27-41.177-11.6-6.52,1.9-12.686,5-19.05,7.466a7.833,7.833,0,0,1-5.414.291c16.508-10.409,33.75-17.531,53.9-11.5l.589-1.264c-2.745-1.368-5.354-3.379-8.257-3.991-11.76-2.48-22.741.907-33.506,5.26-2.371.959-4.727,1.953-7.091,2.93l-.747-1.068c.6-.762,1.046-1.876,1.832-2.233,12.582-5.714,25.6-9.785,39.614-8.119,6.419.764,12.362,2.715,13.323,10.984.426,3.666,6.733,6.4,9.7,4.995,8.03-3.787,9.972-3.322,15.641,3.737.729.909,1.456,1.821,2.221,2.7a8.954,8.954,0,0,0,1.506.916c-.692-3.763-1.879-7.048-1.777-10.292.234-7.4.414-14.93,1.924-22.132,1.219-5.815,5.8-9.774,11.972-10.7,4.493-.675,9.117-.685,12.164,3.76,3.876,5.656,4.752,11.7,1.772,17.964-3.43,7.209-3.464,7.033,3.363,11.044a102,102,0,0,1,8.4,5.927c6.787-4.264,12.586-8.272,18.747-11.611,2.707-1.468,4.537-2.608,3.675-5.913-.846-3.241-2.1-6.328-6.116-6a23.2,23.2,0,0,0-7.616,2.075c-3.926,1.8-7.568,4.221-11.474,6.075a86.739,86.739,0,0,1-8.552,3.054,10.676,10.676,0,0,1-.209-1.557c9.44-4.249,18.686-9.057,28.424-12.458,4.681-1.634,8.6,2.114,9.623,7.823.632,3.522,2.109,4.513,5.506,4.793,7.414.611,9.957,3.713,10.559,11.155.119,1.478,1.544,2.807,2.014,4.315a13.686,13.686,0,0,1,.156,3.625c-1.115-.366-2.7-.385-3.269-1.155-3.469-4.653-7.483-3.154-10.983-.685a118.546,118.546,0,0,0-12.576,10.621,5.1,5.1,0,0,0-.915,4.292c.6,2.178,1.976,4.144,3.3,6.742,3.267-2.27,6.126-4.4,9.125-6.308,5.365-3.415,11.211-5.208,17.58-3.913,5.817,1.183,7.38,4.31,5.342,9.862-5.2,14.156-16.748,20.973-30.22,24.355C1129.509,496.736,1120.368,496.559,1110.739,497.5Zm-18.393-63.478c5.578-1.36,8.077-5.818,9.4-11.161,1.108-4.483-2.058-10.754-6.2-12.469-3.911-1.618-8.011.067-10.92,4.642a19.729,19.729,0,0,0-2.431,4.9c-4.566,15.658.329,30.1,7.071,43.715,4.232,8.548,10.615,16.067,16.358,23.807a12.6,12.6,0,0,0,6.466,4.671,46.5,46.5,0,0,0,37.277-6.619c4.743-3.112,8.7-7.684,12.286-12.173,1.472-1.841,2.182-5.933,1.1-7.677-.944-1.524-5.061-2.022-7.471-1.517a27.02,27.02,0,0,0-16.348,10.672c-1.082,1.441-2.857,2.36-4.313,3.519a28.555,28.555,0,0,1-2.41-4.649c-3.511-11.346-11.384-19.1-20.663-26.145-3.589,13.676-3.589,13.676-6.47,14.271,0-5.312,1.608-11.472-.443-15.959C1102.495,441.177,1096.828,438.115,1092.346,434.02Zm27.456,14.928c2.32,2.259,4.848,4.248,6.766,6.712,2.263,2.908,3.894,2.574,6.386.253,6.2-5.773,12.5-11.526,21.375-12.864-1.246-7.3-5.6-9.781-14.076-8.175C1131.6,436.513,1125.191,441.525,1119.8,448.948Z" transform="translate(-785.241 -382.579)" style="fill:#fff"/><path d="M862.379,424.707c-10.309.612-18.194,4.467-25.862,8.792-9.688,5.465-17.517,12.6-20.97,23.721-.324,1.043-3.051,2.03-4.546,1.881-3.447-.345-6.788-1.73-10.236-2.1-6.392-.693-9.714,3.295-8.386,9.55,1.134,5.344,4.313,9.334,9.341,10.841,8.4,2.518,17.056,4.207,25.587,6.316a8.981,8.981,0,0,1,4.919,2.892c-.727.244-1.524.82-2.17.683-10.526-2.245-21.243-3.932-31.436-7.23-3.79-1.226-7.209-5.815-9.263-9.684-3.4-6.4-1.965-10.77,3.78-16.34-1.59-2.158-3.282-4.355-4.868-6.626-4.72-6.761-3.865-11.784,2.157-17.349,1.245-1.152,1.414-4.064,1.219-6.082-1.174-12.18,6.109-19.2,17.212-16.3,2.227.582,4.389,1.409,7.105,2.293,0-1.629-.067-2.893.011-4.147.572-9.231,6.105-13.433,15.207-11.506,10.884,2.3,20.009,7.986,28.456,14.947.889.732,1.808,1.428,2.73,2.118.1.071.306-.014.612-.039.526-4.677.731-9.452,1.664-14.08a17.37,17.37,0,0,1,11.451-13.466c9.709-3.621,18.577,1.147,20.355,11.134,1.551,8.715-.588,16.872-5.038,24.415-.625,1.06-1.976,1.693-2.991,2.523l-1.207-.845a41.519,41.519,0,0,0,1.611-4.785c1.361-6.438,3.261-12.857,3.694-19.368.383-5.747-4.1-10.583-9.24-11.535-5.215-.965-8.427,2.253-11.083,6.1-5.942,8.6-5.875,17.867-2.178,27.129,1.326,3.323.957,4.989-1.882,7-6.639,4.712-8.988,11.2-7.258,19.247.289,1.342-.5,2.916-.8,4.383-1.185-1.091-3-1.973-3.442-3.31a17.249,17.249,0,0,1,1.865-15.32C859.553,428.914,860.653,427.306,862.379,424.707Zm-.362-5.009c-4.372-9.382-25.332-23.076-35.049-22.588a8.974,8.974,0,0,0-6.073,3.327c-2.243,3.167-.276,12.5,2.553,15.446,3.578,3.721,7.068,7.53,10.766,11.127.891.867,2.693,1.758,3.666,1.428C845.877,425.724,853.778,422.725,862.017,419.7ZM818.35,442.634c4.275-3.506,7.968-6.294,11.309-9.456a4.257,4.257,0,0,0,.356-4.088,49.116,49.116,0,0,0-20.6-17.493c-7.2-3.213-13.627,1.247-13.272,9.231.119,2.68,1.828,7.15,3.6,7.58C808,430.421,814.4,434.353,818.35,442.634Zm-20.774-10.5c-7.06-.112-10.253,4.609-6.935,10.667s7.182,11.283,15.308,11.68c6.228.3,9.547-2.646,8.176-8.826C812.5,438.315,805.081,432.256,797.576,432.137Z" transform="translate(-785.241 -382.579)" style="fill:#fff"/><path d="M999.583,511.6c6.7,16.957-11.731,35.554-29.442,30.748a77.845,77.845,0,0,1-20.392-8.775c-7.77-4.816-8.708-9.287-6.066-18.348-4.106.323-8.073.342-11.923,1.021-3.89.686-6.03-.5-5.785-4.448.918-14.756,1.982-29.5,3.093-44.246a19.188,19.188,0,0,1,1.392-4.784c2.609-7.343,6.472-10.579,11.453-9.662,6.919,1.272,11.477,6.78,11.891,13.807q1.13,19.183,2.639,38.346c.322,4.143-.234,7.062-4.613,9.253-6.45,3.228-6.86,8.2-1.789,13.247a41.688,41.688,0,0,0,23.352,11.569c10.288,1.643,20.059-5.221,22.836-15.294,1.533-5.56.248-8.981-4.618-12.449-.767-.546-1.419-1.254-3-2.67a21.977,21.977,0,0,1,4.148-.9c5.648.095,11.3.22,16.937.528,3.4.186,4.865-1.573,5.372-4.572a13.084,13.084,0,0,0,.4-3.956q-2.712-18.231-5.637-36.428a7.311,7.311,0,0,0-1.332-3.205c-.962-1.248-2.565-3.327-3.339-3.107a5.669,5.669,0,0,0-3.53,3.485c-1.81,9.112-3.343,18.283-4.766,27.466-.685,4.421-.666,8.961-1.506,13.344-.353,1.845-2.1,3.423-3.216,5.122l-1.588-.749c.424-5.359.618-10.748,1.321-16.07,1.3-9.867,2.68-19.737,4.49-29.519.753-4.071,3.221-7.542,8.043-7.61a8.418,8.418,0,0,1,8.642,7.032c2.606,12.989,4.747,26.08,6.675,39.19a17.412,17.412,0,0,1-1.472,8.719,7.005,7.005,0,0,1-4.662,3.743C1009.2,511.957,1004.694,511.6,999.583,511.6Zm-54.989-23.088,1.959.825c-.258,1.53-.5,3.062-.779,4.588-.685,3.758-1.515,7.5-2.041,11.276-.382,2.738-.427,5.491,3.6,5.659,4.106.171,4.562-2.3,4.374-5.519-.775-13.283-1.452-26.571-2.265-39.851-.234-3.807-4.657-8.293-8.437-8.708-4.57-.5-5.816,3.086-7.26,6.26a11.016,11.016,0,0,0-1.057,3.824c-.761,13.424-1.533,26.85-2.007,40.286-.056,1.566,1.471,4.384,2.6,4.565,2.954.475,5.907-.033,6.227-4.4a93.853,93.853,0,0,1,2.176-13.742C942.084,491.763,943.588,490.2,944.594,488.515Z" transform="translate(-785.241 -382.579)" style="fill:#fff"/><path d="M901.9,553.772l-3.231,4.485c-.953-1.753-2.639-3.48-2.7-5.265-.127-3.509.649-7.05,1.046-10.536l10.3-6.849,1.166,1.242a23.551,23.551,0,0,1-2.209,3.238c-2.54,2.681-2.719,4.655,1.1,6.355,42.715,19.038,85.076,19.267,127.064-2.24.137-.07.222-.239.78-.864a38.854,38.854,0,0,1-3.425-4.35,20.047,20.047,0,0,1-1.4-4.159c1.49.356,3.619.215,4.354,1.159a52.8,52.8,0,0,1,6.619,10.353c1.272,2.8,1.5,6.115,1.884,9.239.107.873-.9,1.882-1.395,2.829-.8-.666-1.894-1.18-2.321-2.031a27.621,27.621,0,0,1-1.442-4.521c-5.566,4.737-10.629,9.741-16.369,13.785-11.571,8.155-24.882,12.067-38.827,13.045-28.15,1.975-53.651-5.794-76.528-22.27-.945-.681-1.927-1.314-2.923-1.917A13.983,13.983,0,0,0,901.9,553.772Zm70.267,22.313.069-.325a22.847,22.847,0,0,1,3,.019c4.949.659,5.269-2.322,5.29-6.125.02-3.87-.419-6.237-5.348-6.114-7.471.187-14.963-.623-22.445-.6-1.593,0-4.246,1.487-4.554,2.744-.669,2.724-1.144,6.2,3.317,6.918C958.393,573.711,965.277,574.918,972.168,576.085Zm41.262-10.528c-.092-5.776-2.408-7.579-6.647-6.672-4.864,1.04-9.74,2.04-14.64,2.886-7.858,1.357-7.979,1.561-7.563,9.6.156,3.021,1.213,4.448,4.265,3.58,7.149-2.034,14.318-4.019,21.368-6.358C1011.744,568.084,1012.808,566.172,1013.43,565.557Zm-68.317,4.093c-1.563-3.43-2.109-7.3-3.839-7.934-5.669-2.07-11.769-2.961-17.691-4.3C922.385,562.96,932.11,568.812,945.113,569.65Zm88.459-19.168-1.3-1.392c-3.75,1.691-7.451,3.5-11.262,5.043-5.672,2.293-6.114,4.323-1.208,10C1024.423,559.555,1029,555.019,1033.572,550.482Zm-127-.533-.969,1.285,11.624,7.669,1.343-2.1C915.766,552.684,910.111,552.941,906.573,549.949Z" transform="translate(-785.241 -382.579)" style="fill:#fff"/><path d="M906.823,440.718c-5.775-2.519-11.568-5-17.318-7.573-3.014-1.35-5.037-.848-7.166,2-8.963,11.988-18.346,23.663-27.254,35.691-2.641,3.566-4.4,7.836-6.263,11.919-3.478,7.608-2.533,14.8,3.447,20.7,4.006,3.948,8.734,7.158,13.092,10.755,1.59,1.313,3.045,2.791,4.562,4.193l-.5,1.266c-1.113-.085-2.532.243-3.29-.32-6.266-4.652-12.7-9.143-18.509-14.33-5.656-5.052-6.51-11.815-4.118-18.859,4.129-12.159,11.1-22.7,19.115-32.587,5.766-7.118,11.834-14,17.44-21.235,2.283-2.948,4.643-4.088,8.093-2.907,5.173,1.77,10.49,3.251,15.4,5.585,1.61.765,2.142,3.8,3.167,5.794Z" transform="translate(-785.241 -382.579)" style="fill:#fff"/><path d="M906.723,440.807c2.66-1.933,5.38-3.788,7.969-5.812,10.814-8.453,22.714-11.483,36.054-7.294a10.5,10.5,0,0,1,2.6,1.841L953,430.955c-4.675-.7-9.372-2.068-14.019-1.915-4.87.16-9.692,1.781-14.572,3.619,19.4-3.479,35.371,5.232,51.567,13.088l-.164,1.579c-1.68-.155-3.515.072-5.012-.534-5.4-2.183-10.619-4.806-16.021-6.979-25.345-10.195-48.528.22-62.744,20.827a7.38,7.38,0,0,0-.648,1.879l.158-.134h-4.617c4.661-9.7,12.463-15.52,19.894-21.667Z" transform="translate(-785.241 -382.579)" style="fill:#fff"/><path d="M877.893,512.7c8.183-3.785,15.075-5.9,22.038-1.994l.018,1.806a33.654,33.654,0,0,1-4.781-.358,17.528,17.528,0,0,0-17.951,6.106c-1.85,2.2-1.53,6.151-2.435,9.236a26.147,26.147,0,0,1-2.184,4.35,32.6,32.6,0,0,1-2.011-4.524,6.668,6.668,0,0,1,.046-3.465c2.527-8.973,1.1-19.021,6.654-27.11,6.525-9.5,15.4-15.539,27.3-16.131a37.361,37.361,0,0,1,5.061.415l.184,1.879c-2.03.306-4.049.765-6.09.893-10.45.659-20.982,8.454-24.224,18.474,8.161-5.915,16.533-9.852,26.305-8.954l.412,1.255c-5.369,1.683-10.909,2.966-16.06,5.16C884.9,501.98,880.914,505.983,877.893,512.7Z" transform="translate(-785.241 -382.579)" style="fill:#fff"/><path d="M1057.045,465.629c2.152,3.012,4.325,5.759,6.111,8.738.518.865-.075,2.395-.158,3.621-1.092-.432-2.716-.546-3.191-1.344-4.361-7.333-10.181-12.685-18.694-14.69a22.884,22.884,0,0,1-2.346-.819q.645-1.177,1.292-2.354l12.218,2.962c-1.1-4.065-3.55-6.338-9.653-7.2-4.3-.605-8.756-.117-13.142-.117q-.15-.84-.3-1.681l12.263-2.514c-4.872-4.421-10.07-5.114-15.27-4.529-5.131.578-10.155,2.106-15.226,3.218l-.591-1.654c4.02-1.341,7.956-3.091,12.077-3.941,10.094-2.081,19.168-.4,26.091,8.157,1.1,1.359,3.07,1.972,4.416,3.176C1056.288,457.651,1059.958,460.623,1057.045,465.629Z" transform="translate(-785.241 -382.579)" style="fill:#fff"/><path d="M891.545,462.385l-.158.134c14.124-8.4,29.2-13.244,46.007-11.932-17.2,2.494-33.99,5.972-47.553,18.132,6.269-1.161,12.432-3.621,19.836-.838-7.451,2.262-14.32,3.315-20.106,6.4-5.658,3.014-10.211,8.1-15.7,11.77C876.158,475.268,883.853,468.827,891.545,462.385Z" transform="translate(-785.241 -382.579)" style="fill:#fff"/><path d="M1047.187,473.979c2.506.5,5.239.511,7.479,1.571,7.929,3.75,13.345,17.036,11.166,26.034-.344,1.42.692,3.127.788,4.72a3.6,3.6,0,0,1-.943,2.5c-.3.3-1.741.031-2.16-.436-5.186-5.779-10.279-11.643-15.713-17.846,6.013-.951,9.635,4.061,14.93,7.82-2.16-10.645-5.02-19.314-16.119-22.268Q1046.9,475.024,1047.187,473.979Z" transform="translate(-785.241 -382.579)" style="fill:#fff"/><path d="M1069.3,527.254c1.991,4.881,3.778,8.885,5.167,13.021.251.748-1.136,2.044-1.766,3.087-.777-.7-2.121-1.306-2.243-2.1-1.357-8.894-7.641-13.205-15.006-16.625a36.455,36.455,0,0,1-4-2.7c6.523-2.377,9.849,3.1,15.226,3.8-2.771-8.936-8.688-13.242-17.664-14.236,3.454-3.368,8.195-2.911,13.321.6C1068.883,516.575,1071.276,522.612,1069.3,527.254Z" transform="translate(-785.241 -382.579)" style="fill:#fff"/><path d="M1025.881,607.607c-.462.764-1.316,2.179-2.171,3.593-.823-1.4-2.248-2.739-2.371-4.193a59.019,59.019,0,0,0-9.105-27.72c-.6-.924-.057-2.586-.045-3.905,1.231.553,2.942.765,3.618,1.713C1022.078,585.9,1024.593,596.006,1025.881,607.607Z" transform="translate(-785.241 -382.579)" style="fill:#fff"/><path d="M1012.964,605.94c-.434,2.945-.685,5.935-1.405,8.808-.23.918-1.7,1.525-2.605,2.275-.373-.986-1.075-1.977-1.059-2.957.046-2.807.5-5.605.583-8.413.213-7.337-2.68-13.494-7.2-19.117-1.009-1.256-1.12-3.235-1.645-4.881,1.638.786,3.72,1.176,4.838,2.427A32.8,32.8,0,0,1,1012.964,605.94Z" transform="translate(-785.241 -382.579)" style="fill:#fff"/><path d="M894.263,535.973c-.573.711-1,1.67-1.741,2.1-8.962,5.166-13.657,13.349-16.431,22.931a9.825,9.825,0,0,1-1.164,3.267,11.028,11.028,0,0,1-2.862,1.962c-.3-1.022-1.03-2.141-.826-3.051,2.585-11.532,8.3-20.976,18.732-27.078a16.166,16.166,0,0,1,3.774-1.112Z" transform="translate(-785.241 -382.579)" style="fill:#fff"/><path d="M1062.089,577.435c-.863-12.292-4.475-22.346-13.2-30.109,4.2-1.659,6.767-.147,10.323,5.37C1065.127,561.869,1067.023,572.643,1062.089,577.435Z" transform="translate(-785.241 -382.579)" style="fill:#fff"/><path d="M960.481,622.379c-.061-.7-.242-1.154-.1-1.317,6.838-7.6,6.628-16.894,6.571-26.249-.015-2.322,1.229-4.653,1.895-6.979.746,2.245,2.3,4.569,2.09,6.719a155.1,155.1,0,0,1-3.39,21.828C966.876,619.126,965.006,622.919,960.481,622.379Z" transform="translate(-785.241 -382.579)" style="fill:#fff"/><path d="M1043.961,597.881l-3.208,5.158a22.722,22.722,0,0,1-2.311-4.168q-3.217-10.391-6.109-20.879a14.426,14.426,0,0,1,.009-3.91c1.238.551,3.242.8,3.593,1.7C1038.8,583.115,1041.35,590.567,1043.961,597.881Z" transform="translate(-785.241 -382.579)" style="fill:#fff"/><path d="M942.281,584.478a7.692,7.692,0,0,1-.243,2.327c-3.526,7.956-1.849,15.565,1.23,23.188.583,1.442.225,3.263.3,4.909-1.405-1.069-3.435-1.841-4.108-3.257-3.664-7.709-5.587-15.714-1.823-24,.7-1.548,2.134-2.767,3.229-4.138Z" transform="translate(-785.241 -382.579)" style="fill:#fff"/><path d="M981.9,619.428c.639-.936.99-1.937,1.7-2.4,4.755-3.147,5.286-7.858,4.625-12.82-.592-4.439-1.793-8.8-2.43-13.231-.2-1.4.553-2.942.87-4.419,1.019,1.06,2.762,2.014,2.938,3.2.991,6.7,2.235,13.472,2.165,20.2C991.694,616.165,987.29,619.84,981.9,619.428Z" transform="translate(-785.241 -382.579)" style="fill:#fff"/><path d="M1050.028,528.772c1.265.416,2.741.544,3.761,1.293a49.826,49.826,0,0,1,16.2,19.707c.548,1.208-.1,2.956-.19,4.454a21.068,21.068,0,0,1-3.393-2.744c-4.8-5.839-9.482-11.778-14.232-17.661-.978-1.211-2.074-2.327-3.116-3.486Z" transform="translate(-785.241 -382.579)" style="fill:#fff"/><path d="M928.261,584.564a15.772,15.772,0,0,1-1.839,2.685c-6.354,6.116-6.8,13.215-3.9,21.083.5,1.37-.1,3.148-.186,4.738-1.257-1.086-3.018-1.926-3.689-3.3-4.193-8.568-2.3-18.029,4.652-24.023a24.865,24.865,0,0,1,3.969-2.33Z" transform="translate(-785.241 -382.579)" style="fill:#fff"/><path d="M913.525,572.422c-.682.794-1.211,1.863-2.07,2.337-6.952,3.842-10.243,10.209-12.31,17.463a5.78,5.78,0,0,1-.551,1.9c-1.09,1.408-2.331,2.7-3.513,4.036-.185-1.8-.9-3.733-.466-5.364,2.147-8.075,5.806-15.291,13.255-19.826,1.477-.9,3.336-1.173,5.019-1.735Z" transform="translate(-785.241 -382.579)" style="fill:#fff"/><path d="M1039.962,565.491c1.007.325,2.311.354,2.972,1.02,5.641,5.681,10.944,11.659,12.142,19.988.22,1.526-.724,3.22-1.131,4.837a31.082,31.082,0,0,1-2.9-3.746c-2.882-5.128-5.572-10.363-8.472-15.48a59.247,59.247,0,0,0-3.793-5.305Z" transform="translate(-785.241 -382.579)" style="fill:#fff"/><path d="M865.322,551.314c2.953-10.778,20.79-26.129,27.8-25.692Z" transform="translate(-785.241 -382.579)" style="fill:#fff"/><path d="M901.414,567.664c-12.057,5.149-9.389,18.521-15.583,27.84C881.607,584.96,892.184,566.017,901.414,567.664Z" transform="translate(-785.241 -382.579)" style="fill:#fff"/><path d="M889.157,563.348c-3.009,7.154-6.044,14.468-9.194,21.731a10.245,10.245,0,0,1-2.14,2.386c-.65-.62-1.656-1.127-1.893-1.877C874.1,579.819,883.479,564.762,889.157,563.348Z" transform="translate(-785.241 -382.579)" style="fill:#fff"/><path d="M1006.43,507.16c-.185-2.644-.461-5.286-.532-7.932a78.164,78.164,0,0,1,.118-9.438c.111-1.18,1.3-2.259,1.99-3.384.614,1.033,1.716,2.046,1.758,3.1.189,4.8.186,9.612,0,14.411-.045,1.186-1.028,2.336-1.579,3.5Z" transform="translate(-785.241 -382.579)" style="fill:#fff"/><path d="M1163.446,459.773c-.4.641-.957,2.083-1.328,2.036-.927-.117-2.346-.744-2.55-1.458a99.733,99.733,0,0,1-2.623-11.528c-.148-.916,1.04-2.048,1.613-3.08.786.706,2.048,1.286,2.275,2.14C1161.843,451.7,1162.557,455.589,1163.446,459.773Z" transform="translate(-785.241 -382.579)" style="fill:#fff"/></svg>